# xmcd CD database file
#
# Track frame offsets:
#	150
#	35843
#	80197
#	128812
#	145825
#	163712
#	179949
#	205475
#	223845
#	240351
#	257877
#	270193
#	289706
#
# Disc length: 4168 seconds
#
# Revision: 2
# Processed by: cddbd v1.5.2PL0 Copyright (c) Steve Scherf et al.
# Submitted via: CDex 1.70beta2
#
DISCID=cf10460d
DTITLE=Thelonious Monk - 5 By Monk By 5/Alone in San Francisco
DYEAR=1959
DGENRE=Jazz
TTITLE0=Played Twice (Take 2)
TTITLE1=I Mean You
TTITLE2=Ask Me Now
TTITLE3=Blue Monk
TTITLE4=Ruby, My Dear
TTITLE5=Round Lights
TTITLE6=Everything Happens to Me
TTITLE7=You Took the Words Right Out of My Heart
TTITLE8=Blue Hawk
TTITLE9=Pannonica
TTITLE10=Remember
TTITLE11=There's Danger In Your Eyes, Cherie
TTITLE12=Reflections
EXTD=YEAR: 1959
EXTT0=
EXTT1=
EXTT2=
EXTT3=
EXTT4=
EXTT5=
EXTT6=
EXTT7=
EXTT8=
EXTT9=
EXTT10=
EXTT11=
EXTT12=
PLAYORDER=
